<mxfile host="app.diagrams.net" modified="2024-03-05T04:36:58.545Z" agent="Mozilla/5.0 (Windows NT 10.0; Win64; x64) AppleWebKit/537.36 (KHTML, like Gecko) Chrome/122.0.0.0 Safari/537.36 Edg/122.0.0.0" etag="33mBrAQ0hOaKdpNXtxjW" version="23.1.7" type="github">
  <diagram name="第 1 页" id="8dnBXqAEipQdTBcn2IBP">
    <mxGraphModel dx="679" dy="361" grid="1" gridSize="10" guides="1" tooltips="1" connect="1" arrows="1" fold="1" page="1" pageScale="1" pageWidth="1169" pageHeight="827" math="0" shadow="0">
      <root>
        <mxCell id="0" />
        <mxCell id="1" parent="0" />
        <mxCell id="8WeJLUXaILBL9At-9CzK-2" value="" style="rounded=0;whiteSpace=wrap;html=1;" vertex="1" parent="1">
          <mxGeometry x="140" y="300" width="190" height="170" as="geometry" />
        </mxCell>
        <mxCell id="8WeJLUXaILBL9At-9CzK-3" value="device_0&lt;br&gt;容量：10&lt;br&gt;已用：4" style="text;html=1;align=center;verticalAlign=middle;whiteSpace=wrap;rounded=0;" vertex="1" parent="1">
          <mxGeometry x="205" y="430" width="60" height="30" as="geometry" />
        </mxCell>
        <mxCell id="8WeJLUXaILBL9At-9CzK-4" value="容量：4&lt;br&gt;已用：4" style="rounded=1;whiteSpace=wrap;html=1;" vertex="1" parent="1">
          <mxGeometry x="155" y="310" width="70" height="50" as="geometry" />
        </mxCell>
        <mxCell id="8WeJLUXaILBL9At-9CzK-5" value="session_0" style="text;html=1;align=center;verticalAlign=middle;whiteSpace=wrap;rounded=0;fontSize=9;" vertex="1" parent="1">
          <mxGeometry x="160" y="340" width="60" height="30" as="geometry" />
        </mxCell>
        <mxCell id="8WeJLUXaILBL9At-9CzK-7" value="流量1MB" style="endArrow=classic;html=1;rounded=0;" edge="1" parent="1">
          <mxGeometry width="50" height="50" relative="1" as="geometry">
            <mxPoint x="189.76" y="240" as="sourcePoint" />
            <mxPoint x="189.76" y="310" as="targetPoint" />
          </mxGeometry>
        </mxCell>
      </root>
    </mxGraphModel>
  </diagram>
</mxfile>
